PathFileType	4	(X/Y/Z)	RBDS07static.trc
DataRate	CameraRate	NumFrames	NumMarkers	Units	OrigDataRate	OrigDataStartFrame	OrigNumFrames
150.000000	150.000000	4	48	mm	150.000000	112	150
Frame#	Time	L.Ankle			L.Ankle.Medial			L.ASIS			L.GTR			L.Heel.Bottom			L.Heel.Lateral			L.Heel.Top			L.HF			L.Iliac.Crest			L.Knee			L.Knee.Medial			L.MT1			L.MT2			L.MT5			L.PSIS			L.Shank.Bottom.Lateral			L.Shank.Bottom.Medial			L.Shank.Top.Lateral			L.Shank.Top.Medial			L.Thigh.Bottom.Lateral			L.Thigh.Bottom.Medial			L.Thigh.Top.Lateral			L.Thigh.Top.Medial			L.TT			R.Ankle			R.Ankle.Medial			R.ASIS			R.GTR			R.Heel.Bottom			R.Heel.Lateral			R.Heel.Top			R.HF			R.Iliac.Crest			R.Knee			R.Knee.Medial			R.MT1			R.MT2			R.MT5			R.PSIS			R.Shank.Bottom.Lateral			R.Shank.Bottom.Medial			R.Shank.Top.Lateral			R.Shank.Top.Medial			R.Thigh.Bottom.Lateral			R.Thigh.Bottom.Medial			R.Thigh.Top.Lateral			R.Thigh.Top.Medial			R.TT			
		X1	Y1	Z1	X2	Y2	Z2	X3	Y3	Z3	X4	Y4	Z4	X5	Y5	Z5	X6	Y6	Z6	X7	Y7	Z7	X8	Y8	Z8	X9	Y9	Z9	X10	Y10	Z10	X11	Y11	Z11	X12	Y12	Z12	X13	Y13	Z13	X14	Y14	Z14	X15	Y15	Z15	X16	Y16	Z16	X17	Y17	Z17	X18	Y18	Z18	X19	Y19	Z19	X20	Y20	Z20	X21	Y21	Z21	X22	Y22	Z22	X23	Y23	Z23	X24	Y24	Z24	X25	Y25	Z25	X26	Y26	Z26	X27	Y27	Z27	X28	Y28	Z28	X29	Y29	Z29	X30	Y30	Z30	X31	Y31	Z31	X32	Y32	Z32	X33	Y33	Z33	X34	Y34	Z34	X35	Y35	Z35	X36	Y36	Z36	X37	Y37	Z37	X38	Y38	Z38	X39	Y39	Z39	X40	Y40	Z40	X41	Y41	Z41	X42	Y42	Z42	X43	Y43	Z43	X44	Y44	Z44	X45	Y45	Z45	X46	Y46	Z46	X47	Y47	Z47	X48	Y48	Z48	

113	0.7466666666666667	696.2813720703125	113.3769149780273	1034.670043945313	718.7494506835938	124.8796310424805	1117.471801757813	841.5206909179688	1083.635375976563	1089.7353515625	775.9927368164063	984.8499145507813	1046.6513671875	637.3864135742188	39.60679244995117	1080.095947265625	665.4234008789063	61.308837890625	1038.870727539063	644.8922119140625	87.53266906738281	1082.927368164063	695.4636840820313	502.2768859863281	1045.833740234375	779.8516235351563	1131.938110351563	1069.051391601563	704.4415283203125	560.7039184570313	1056.078247070313	713.942626953125	537.4064331054688	1173.174682617188	854.3600463867188	56.06824493408203	1119.53076171875	858.1065063476563	71.64533233642578	1080.123291015625	828.4764404296875	50.50088119506836	1010.909851074219	680.8729858398438	1101.735473632813	1180.231567382813	689.079345703125	202.6528472900391	1034.870361328125	646.4492797851563	196.7682647705078	1068.533081054688	673.9896850585938	281.2906188964844	1027.804565429688	632.2146606445313	276.5234985351563	1060.7041015625	707.4126586914063	703.9793090820313	1045.223510742188	661.4720458984375	711.21533203125	1102.163696289063	717.0833740234375	813.9111328125	1041.911254882813	677.5289306640625	820.076904296875	1100.01953125	754.7498779296875	467.3460998535156	1094.7841796875	702.6432495117188	107.6293792724609	1411.62744140625	721.5604248046875	130.9760437011719	1328.829467773438	848.3724975585938	1084.453491210938	1348.063720703125	795.6742553710938	984.9862670898438	1392.93603515625	636.2384643554688	40.17829513549805	1370.214965820313	659.9555053710938	59.68609237670898	1408.90576171875	643.583251953125	89.75469970703125	1369.520751953125	723.8674926757813	502.6610107421875	1414.233520507813	781.718017578125	1136.600219726563	1369.6875	732.4661254882813	559.8646240234375	1404.840209960938	732.3875732421875	541.8720703125	1288.059936523438	857.111328125	61.19040679931641	1328.692749023438	858.0614624023438	74.06622314453125	1369.9111328125	832.7448120117188	54.65706634521484	1433.016235351563	688.140380859375	1106.4052734375	1270.090454101563	693.4306640625	202.7516174316406	1417.283081054688	652.9275512695313	209.3149871826172	1385.251220703125	693.8560791015625	286.5247802734375	1430.517456054688	649.92041015625	289.1513977050781	1399.227661132813	763.9913940429688	668.1216430664063	1412.4775390625	697.2005004882813	681.986083984375	1384.631225585938	782.3331298828125	777.0416870117188	1419.892456054688	718.849853515625	789.2501831054688	1395.074829101563	777.7976684570313	469.8483581542969	1364.903442382813	
114	0.7533333333333334	696.2755737304688	113.3763732910156	1034.67822265625	718.7405395507813	124.8743667602539	1117.473266601563	841.502685546875	1083.63720703125	1089.734619140625	775.95654296875	984.8522338867188	1046.646606445313	637.3917846679688	39.59563064575195	1080.09033203125	665.42529296875	61.30014038085938	1038.885375976563	644.8997192382813	87.51998901367188	1082.91650390625	695.4583740234375	502.2795104980469	1045.83642578125	779.8104248046875	1131.946166992188	1069.036010742188	704.44140625	560.685302734375	1056.086669921875	713.9256591796875	537.4107666015625	1173.182250976563	854.3512573242188	56.06335067749023	1119.527954101563	858.0965576171875	71.64600372314453	1080.1318359375	828.4730834960938	50.49671936035156	1010.892700195313	680.8467407226563	1101.728515625	1180.239379882813	689.0791625976563	202.6545257568359	1034.85205078125	646.4494018554688	196.7584991455078	1068.532348632813	673.9921875	281.2937622070313	1027.806640625	632.2138061523438	276.5187683105469	1060.698974609375	707.404052734375	703.9706420898438	1045.218994140625	661.466552734375	711.2135009765625	1102.160278320313	717.0797119140625	813.905029296875	1041.907470703125	677.5073852539063	820.076171875	1100.014282226563	754.73388671875	467.3233337402344	1094.780517578125	702.6458740234375	107.6401290893555	1411.631713867188	721.5673828125	130.9682922363281	1328.831176757813	848.3427734375	1084.464233398438	1348.064575195313	795.6569213867188	984.9796142578125	1392.941284179688	636.242431640625	40.18476104736328	1370.208984375	659.9603881835938	59.69554138183594	1408.91162109375	643.5806274414063	89.74891662597656	1369.510131835938	723.8673095703125	502.6629943847656	1414.2451171875	781.6930541992188	1136.60546875	1369.662475585938	732.466552734375	559.8800048828125	1404.855346679688	732.3811645507813	541.8840942382813	1288.05859375	857.1144409179688	61.19422912597656	1328.6962890625	858.064697265625	74.06577301025391	1369.907958984375	832.7431640625	54.67156600952148	1433.019409179688	688.1117553710938	1106.408203125	1270.103515625	693.4409790039063	202.7649688720703	1417.273193359375	652.93017578125	209.3159790039063	1385.258911132813	693.8496704101563	286.538330078125	1430.522827148438	649.9134521484375	289.1598205566406	1399.23046875	763.9900512695313	668.1215209960938	1412.47216796875	697.2001342773438	681.9868774414063	1384.621459960938	782.32568359375	777.0383911132813	1419.890502929688	718.8422241210938	789.2518920898438	1395.07470703125	777.8045043945313	469.852294921875	1364.89990234375	
115	0.76	696.2745361328125	113.3836441040039	1034.667236328125	718.7493896484375	124.8811950683594	1117.465209960938	841.4649658203125	1083.632080078125	1089.717895507813	775.9306030273438	984.8584594726563	1046.651733398438	637.3775024414063	39.60269165039063	1080.082397460938	665.4244384765625	61.29250335693359	1038.886108398438	644.90283203125	87.52954864501953	1082.9287109375	695.4490356445313	502.2815246582031	1045.836547851563	779.7904052734375	1131.9384765625	1069.033325195313	704.4320068359375	560.6963500976563	1056.0771484375	713.92626953125	537.40185546875	1173.169067382813	854.359619140625	56.06771469116211	1119.524047851563	858.0929565429688	71.64061737060547	1080.124267578125	828.4750366210938	50.49497222900391	1010.899047851563	680.8152465820313	1101.725830078125	1180.244506835938	689.0770263671875	202.655517578125	1034.863159179688	646.455078125	196.7605133056641	1068.533203125	673.984130859375	281.2845458984375	1027.809814453125	632.208740234375	276.5214233398438	1060.699584960938	707.38525390625	703.9736938476563	1045.221557617188	661.453369140625	711.2158203125	1102.164794921875	717.069091796875	813.9072265625	1041.903076171875	677.4940185546875	820.0689697265625	1100.014282226563	754.7383422851563	467.3618469238281	1094.787719726563	702.646728515625	107.6317977905273	1411.629760742188	721.567138671875	130.97119140625	1328.824462890625	848.3204345703125	1084.463012695313	1348.061157226563	795.630126953125	984.9891357421875	1392.93505859375	636.2301025390625	40.18507385253906	1370.225952148438	659.9635009765625	59.68658447265625	1408.9091796875	643.577880859375	89.75848388671875	1369.520141601563	723.8648681640625	502.6720581054688	1414.243041992188	781.6697387695313	1136.614624023438	1369.66845703125	732.4732666015625	559.8632202148438	1404.845458984375	732.3870849609375	541.8740844726563	1288.060668945313	857.11279296875	61.19525527954102	1328.696044921875	858.0588989257813	74.06653594970703	1369.902587890625	832.743408203125	54.66181564331055	1433.008544921875	688.09033203125	1106.406127929688	1270.10986328125	693.436767578125	202.7381134033203	1417.2607421875	652.9254760742188	209.3087921142578	1385.259887695313	693.8513793945313	286.5331115722656	1430.512939453125	649.9140625	289.1636657714844	1399.23291015625	763.9920043945313	668.12060546875	1412.467651367188	697.2017822265625	681.987548828125	1384.627807617188	782.3233032226563	777.0399169921875	1419.885498046875	718.8341674804688	789.2518920898438	1395.069458007813	777.7899780273438	469.8490905761719	1364.90625	
116	0.7666666666666667	696.2765502929688	113.3708801269531	1034.683227539063	718.7409057617188	124.8767852783203	1117.466186523438	841.4393920898438	1083.63037109375	1089.714721679688	775.9107055664063	984.85009765625	1046.650634765625	637.3914794921875	39.59894943237305	1080.09326171875	665.4302978515625	61.29954147338867	1038.888916015625	644.89599609375	87.53220367431641	1082.923706054688	695.4539794921875	502.2704467773438	1045.8427734375	779.761474609375	1131.935424804688	1069.041137695313	704.4302368164063	560.6853637695313	1056.080810546875	713.9193725585938	537.4009399414063	1173.180541992188	854.3441772460938	56.06776428222656	1119.525268554688	858.0969848632813	71.64712524414063	1080.129638671875	828.4700317382813	50.50381851196289	1010.893981933594	680.7888793945313	1101.730346679688	1180.241333007813	689.0712280273438	202.6537780761719	1034.855834960938	646.447998046875	196.755859375	1068.534790039063	673.9820556640625	281.2870483398438	1027.79833984375	632.2123413085938	276.5109558105469	1060.714477539063	707.3828735351563	703.9649658203125	1045.220336914063	661.447021484375	711.205322265625	1102.160522460938	717.0570678710938	813.9067993164063	1041.904541015625	677.4859619140625	820.0701904296875	1100.013671875	754.7310791015625	467.34326171875	1094.776489257813	702.6415405273438	107.6425857543945	1411.635498046875	721.558837890625	130.9791412353516	1328.829467773438	848.2965087890625	1084.469970703125	1348.067138671875	795.6118774414063	984.999755859375	1392.937866210938	636.2310791015625	40.18532562255859	1370.210815429688	659.9556274414063	59.68084716796875	1408.908569335938	643.58203125	89.75801849365234	1369.524658203125	723.8685913085938	502.6673889160156	1414.242553710938	781.64306640625	1136.615966796875	1369.668823242188	732.4772338867188	559.8656616210938	1404.84228515625	732.3896484375	541.87158203125	1288.058837890625	857.1109619140625	61.19679641723633	1328.6904296875	858.0576782226563	74.07180786132813	1369.917602539063	832.7435913085938	54.66186141967773	1433.015747070313	688.0656127929688	1106.402099609375	1270.109741210938	693.4345092773438	202.7563171386719	1417.280639648438	652.9297485351563	209.3075866699219	1385.261962890625	693.8577270507813	286.5238647460938	1430.518676757813	649.9158325195313	289.15478515625	1399.233520507813	763.98828125	668.1278686523438	1412.470947265625	697.1942749023438	681.9841918945313	1384.632690429688	782.3184814453125	777.044677734375	1419.886840820313	718.8234252929688	789.2518920898438	1395.075927734375	777.802734375	469.8402099609375	1364.909057617188	
